<?xml version="1.0" encoding="UTF-8"?>
<svg width="1000px" height="1000px" viewBox="0 0 1000 1000" version="1.1" xmlns="http://www.w3.org/2000/svg" xmlns:xlink="http://www.w3.org/1999/xlink">
    <title>logo</title>
    <g id="Page-1" stroke="none" stroke-width="1" fill="none" fill-rule="evenodd">
        <g id="logo">
            <rect id="Rectangle" fill="#1B2026" x="0" y="0" width="1000" height="1000"></rect>
            <path d="M360.312333,861.216894 C414.848953,790.726825 471.089842,709.106746 503.47096,623.776663 C554.599041,636.761676 619.361277,633.051672 653.446664,633.051672 C701.166207,633.051672 927.834033,660.876699 897.157184,558.851601 C880.11449,505.056548 810.239446,525.461568 772.74552,525.461568 C714.800362,529.171572 656.855203,531.026574 598.910045,527.31657 C571.641735,525.461568 539.260617,527.31657 515.400845,514.331557 C479.611189,475.37652 418.257491,518.041561 435.300185,568.12661 C438.708724,579.25662 443.821532,588.531629 452.342879,595.951636 C421.66603,653.456692 373.946488,707.251744 336.452562,751.771788 C310.888521,783.306818 283.620211,814.841849 252.943363,842.666876 C249.534824,846.376879 230.787861,859.361892 210.336629,870.491903 L230.787861,835.246869 C254.647632,790.726825 280.211673,746.206782 307.479983,703.541741 C363.720872,616.356656 421.66603,532.881575 481.315458,451.261496 C580.163081,321.41137 685.827782,184.141237 811.943716,83.9711399 C842.620564,59.8561165 832.394948,6.06106428 793.196753,0.496058879 C760.815635,-5.06894652 726.730247,37.5960949 704.574745,58.0011147 C627.882624,130.346185 556.30331,211.966264 488.132536,295.441345 C413.144683,386.336433 341.56537,479.086523 273.394595,575.546617 C210.336629,664.586703 140.461584,762.901798 108.080466,870.491903 C92.7420421,918.72195 96.1505809,976.227005 145.574393,994.777023 C229.083592,1024.45705 312.592791,920.576951 360.312333,861.216894 Z" id="f" fill="#FFFFFF" fill-rule="nonzero"></path>
        </g>
    </g>
</svg>