<svg viewBox="0 0 16 16" xmlns="http://www.w3.org/2000/svg"><path fill="none" d="M0 0h16v16H0z"/><path fill="#000000" d="M5.765 13.78c.872-1.129 1.772-2.435 2.29-3.8.818.208 1.855.148 2.4.148.763 0 4.39.446 3.9-1.187-.274-.86-1.391-.534-1.991-.534-.928.06-1.855.089-2.782.03-.436-.03-.954 0-1.336-.209-.573-.623-1.554.06-1.282.861a.92.92 0 00.273.445c-.491.92-1.255 1.781-1.855 2.493-.409.505-.845 1.01-1.336 1.455-.054.059-.354.267-.682.445l.328-.564c.381-.713.79-1.425 1.227-2.108.9-1.395 1.827-2.73 2.781-4.036 1.581-2.078 3.272-4.274 5.29-5.877.49-.386.327-1.247-.3-1.336-.518-.089-1.064.594-1.418.92-1.227 1.158-2.373 2.464-3.463 3.8a75.511 75.511 0 00-3.436 4.48c-1.01 1.426-2.127 2.998-2.645 4.72-.246.772-.191 1.692.6 1.988 1.336.475 2.672-1.187 3.435-2.137z"/></svg>